<mxfile host="app.diagrams.net" modified="2021-09-14T18:37:14.235Z" agent="5.0 (Macintosh; Intel Mac OS X 10_15_7) AppleWebKit/537.36 (KHTML, like Gecko) Chrome/93.0.4577.63 Safari/537.36" etag="heXbxKS4ef19g07KlPno" version="15.2.7" type="github">
  <diagram id="R2lEEEUBdFMjLlhIrx00" name="Page-1">
    <mxGraphModel dx="2037" dy="1134" grid="1" gridSize="10" guides="1" tooltips="1" connect="1" arrows="1" fold="1" page="1" pageScale="1" pageWidth="850" pageHeight="1100" math="0" shadow="0" extFonts="Permanent Marker^https://fonts.googleapis.com/css?family=Permanent+Marker">
      <root>
        <mxCell id="0" />
        <mxCell id="1" parent="0" />
        <mxCell id="dEwZGS1SP1S7uAI_P9MJ-19" value="" style="group" vertex="1" connectable="0" parent="1">
          <mxGeometry x="90" y="40" width="180" height="210" as="geometry" />
        </mxCell>
        <mxCell id="dEwZGS1SP1S7uAI_P9MJ-17" value="is_active" style="shape=partialRectangle;connectable=0;fillColor=none;top=0;left=0;bottom=0;right=0;align=left;spacingLeft=6;overflow=hidden;" vertex="1" parent="dEwZGS1SP1S7uAI_P9MJ-19">
          <mxGeometry x="30" y="180" width="150" height="30" as="geometry" />
        </mxCell>
        <mxCell id="dEwZGS1SP1S7uAI_P9MJ-18" value="" style="group" vertex="1" connectable="0" parent="dEwZGS1SP1S7uAI_P9MJ-19">
          <mxGeometry width="180" height="210" as="geometry" />
        </mxCell>
        <mxCell id="dEwZGS1SP1S7uAI_P9MJ-1" value="teacher" style="shape=table;startSize=30;container=1;collapsible=1;childLayout=tableLayout;fixedRows=1;rowLines=0;fontStyle=1;align=center;resizeLast=1;" vertex="1" parent="dEwZGS1SP1S7uAI_P9MJ-18">
          <mxGeometry width="180" height="210" as="geometry" />
        </mxCell>
        <mxCell id="dEwZGS1SP1S7uAI_P9MJ-2" value="" style="shape=partialRectangle;collapsible=0;dropTarget=0;pointerEvents=0;fillColor=none;top=0;left=0;bottom=1;right=0;points=[[0,0.5],[1,0.5]];portConstraint=eastwest;" vertex="1" parent="dEwZGS1SP1S7uAI_P9MJ-1">
          <mxGeometry y="30" width="180" height="30" as="geometry" />
        </mxCell>
        <mxCell id="dEwZGS1SP1S7uAI_P9MJ-3" value="PK" style="shape=partialRectangle;connectable=0;fillColor=none;top=0;left=0;bottom=0;right=0;fontStyle=1;overflow=hidden;" vertex="1" parent="dEwZGS1SP1S7uAI_P9MJ-2">
          <mxGeometry width="30" height="30" as="geometry" />
        </mxCell>
        <mxCell id="dEwZGS1SP1S7uAI_P9MJ-4" value="UniqueID" style="shape=partialRectangle;connectable=0;fillColor=none;top=0;left=0;bottom=0;right=0;align=left;spacingLeft=6;fontStyle=5;overflow=hidden;" vertex="1" parent="dEwZGS1SP1S7uAI_P9MJ-2">
          <mxGeometry x="30" width="150" height="30" as="geometry" />
        </mxCell>
        <mxCell id="dEwZGS1SP1S7uAI_P9MJ-5" value="" style="shape=partialRectangle;collapsible=0;dropTarget=0;pointerEvents=0;fillColor=none;top=0;left=0;bottom=0;right=0;points=[[0,0.5],[1,0.5]];portConstraint=eastwest;" vertex="1" parent="dEwZGS1SP1S7uAI_P9MJ-1">
          <mxGeometry y="60" width="180" height="30" as="geometry" />
        </mxCell>
        <mxCell id="dEwZGS1SP1S7uAI_P9MJ-6" value="PK" style="shape=partialRectangle;connectable=0;fillColor=none;top=0;left=0;bottom=0;right=0;editable=1;overflow=hidden;" vertex="1" parent="dEwZGS1SP1S7uAI_P9MJ-5">
          <mxGeometry width="30" height="30" as="geometry" />
        </mxCell>
        <mxCell id="dEwZGS1SP1S7uAI_P9MJ-7" value="id" style="shape=partialRectangle;connectable=0;fillColor=none;top=0;left=0;bottom=0;right=0;align=left;spacingLeft=6;overflow=hidden;" vertex="1" parent="dEwZGS1SP1S7uAI_P9MJ-5">
          <mxGeometry x="30" width="150" height="30" as="geometry" />
        </mxCell>
        <mxCell id="dEwZGS1SP1S7uAI_P9MJ-8" value="" style="shape=partialRectangle;collapsible=0;dropTarget=0;pointerEvents=0;fillColor=none;top=0;left=0;bottom=0;right=0;points=[[0,0.5],[1,0.5]];portConstraint=eastwest;" vertex="1" parent="dEwZGS1SP1S7uAI_P9MJ-1">
          <mxGeometry y="90" width="180" height="30" as="geometry" />
        </mxCell>
        <mxCell id="dEwZGS1SP1S7uAI_P9MJ-9" value="" style="shape=partialRectangle;connectable=0;fillColor=none;top=0;left=0;bottom=0;right=0;editable=1;overflow=hidden;" vertex="1" parent="dEwZGS1SP1S7uAI_P9MJ-8">
          <mxGeometry width="30" height="30" as="geometry" />
        </mxCell>
        <mxCell id="dEwZGS1SP1S7uAI_P9MJ-10" value="name" style="shape=partialRectangle;connectable=0;fillColor=none;top=0;left=0;bottom=0;right=0;align=left;spacingLeft=6;overflow=hidden;" vertex="1" parent="dEwZGS1SP1S7uAI_P9MJ-8">
          <mxGeometry x="30" width="150" height="30" as="geometry" />
        </mxCell>
        <mxCell id="dEwZGS1SP1S7uAI_P9MJ-11" value="" style="shape=partialRectangle;collapsible=0;dropTarget=0;pointerEvents=0;fillColor=none;top=0;left=0;bottom=0;right=0;points=[[0,0.5],[1,0.5]];portConstraint=eastwest;" vertex="1" parent="dEwZGS1SP1S7uAI_P9MJ-1">
          <mxGeometry y="120" width="180" height="30" as="geometry" />
        </mxCell>
        <mxCell id="dEwZGS1SP1S7uAI_P9MJ-12" value="" style="shape=partialRectangle;connectable=0;fillColor=none;top=0;left=0;bottom=0;right=0;editable=1;overflow=hidden;" vertex="1" parent="dEwZGS1SP1S7uAI_P9MJ-11">
          <mxGeometry width="30" height="30" as="geometry" />
        </mxCell>
        <mxCell id="dEwZGS1SP1S7uAI_P9MJ-13" value="start_date" style="shape=partialRectangle;connectable=0;fillColor=none;top=0;left=0;bottom=0;right=0;align=left;spacingLeft=6;overflow=hidden;" vertex="1" parent="dEwZGS1SP1S7uAI_P9MJ-11">
          <mxGeometry x="30" width="150" height="30" as="geometry" />
        </mxCell>
        <mxCell id="dEwZGS1SP1S7uAI_P9MJ-16" value="end_date" style="shape=partialRectangle;connectable=0;fillColor=none;top=0;left=0;bottom=0;right=0;align=left;spacingLeft=6;overflow=hidden;" vertex="1" parent="dEwZGS1SP1S7uAI_P9MJ-18">
          <mxGeometry x="30" y="150" width="150" height="30" as="geometry" />
        </mxCell>
        <mxCell id="dEwZGS1SP1S7uAI_P9MJ-20" value="" style="group" vertex="1" connectable="0" parent="1">
          <mxGeometry x="540" y="20" width="180" height="430" as="geometry" />
        </mxCell>
        <mxCell id="dEwZGS1SP1S7uAI_P9MJ-22" value="" style="group" vertex="1" connectable="0" parent="dEwZGS1SP1S7uAI_P9MJ-20">
          <mxGeometry width="180" height="429.99999999999994" as="geometry" />
        </mxCell>
        <mxCell id="dEwZGS1SP1S7uAI_P9MJ-42" value="" style="group" vertex="1" connectable="0" parent="dEwZGS1SP1S7uAI_P9MJ-22">
          <mxGeometry width="180" height="320" as="geometry" />
        </mxCell>
        <mxCell id="dEwZGS1SP1S7uAI_P9MJ-36" value="" style="shape=partialRectangle;connectable=0;fillColor=none;top=0;left=0;bottom=0;right=0;align=left;spacingLeft=6;overflow=hidden;" vertex="1" parent="dEwZGS1SP1S7uAI_P9MJ-42">
          <mxGeometry x="30" y="150" width="150" height="20" as="geometry" />
        </mxCell>
        <mxCell id="dEwZGS1SP1S7uAI_P9MJ-41" value="" style="group" vertex="1" connectable="0" parent="dEwZGS1SP1S7uAI_P9MJ-42">
          <mxGeometry width="180" height="320" as="geometry" />
        </mxCell>
        <mxCell id="dEwZGS1SP1S7uAI_P9MJ-23" value="assistance_request" style="shape=table;startSize=30;container=1;collapsible=1;childLayout=tableLayout;fixedRows=1;rowLines=0;fontStyle=1;align=center;resizeLast=1;" vertex="1" parent="dEwZGS1SP1S7uAI_P9MJ-41">
          <mxGeometry width="180" height="320" as="geometry" />
        </mxCell>
        <mxCell id="dEwZGS1SP1S7uAI_P9MJ-24" value="" style="shape=partialRectangle;collapsible=0;dropTarget=0;pointerEvents=0;fillColor=none;top=0;left=0;bottom=1;right=0;points=[[0,0.5],[1,0.5]];portConstraint=eastwest;" vertex="1" parent="dEwZGS1SP1S7uAI_P9MJ-23">
          <mxGeometry y="30" width="180" height="30" as="geometry" />
        </mxCell>
        <mxCell id="dEwZGS1SP1S7uAI_P9MJ-25" value="PK" style="shape=partialRectangle;connectable=0;fillColor=none;top=0;left=0;bottom=0;right=0;fontStyle=1;overflow=hidden;" vertex="1" parent="dEwZGS1SP1S7uAI_P9MJ-24">
          <mxGeometry width="30" height="30" as="geometry" />
        </mxCell>
        <mxCell id="dEwZGS1SP1S7uAI_P9MJ-26" value="UniqueID" style="shape=partialRectangle;connectable=0;fillColor=none;top=0;left=0;bottom=0;right=0;align=left;spacingLeft=6;fontStyle=5;overflow=hidden;" vertex="1" parent="dEwZGS1SP1S7uAI_P9MJ-24">
          <mxGeometry x="30" width="150" height="30" as="geometry" />
        </mxCell>
        <mxCell id="dEwZGS1SP1S7uAI_P9MJ-27" value="" style="shape=partialRectangle;collapsible=0;dropTarget=0;pointerEvents=0;fillColor=none;top=0;left=0;bottom=0;right=0;points=[[0,0.5],[1,0.5]];portConstraint=eastwest;" vertex="1" parent="dEwZGS1SP1S7uAI_P9MJ-23">
          <mxGeometry y="60" width="180" height="30" as="geometry" />
        </mxCell>
        <mxCell id="dEwZGS1SP1S7uAI_P9MJ-28" value="PK" style="shape=partialRectangle;connectable=0;fillColor=none;top=0;left=0;bottom=0;right=0;editable=1;overflow=hidden;" vertex="1" parent="dEwZGS1SP1S7uAI_P9MJ-27">
          <mxGeometry width="30" height="30" as="geometry" />
        </mxCell>
        <mxCell id="dEwZGS1SP1S7uAI_P9MJ-29" value="id" style="shape=partialRectangle;connectable=0;fillColor=none;top=0;left=0;bottom=0;right=0;align=left;spacingLeft=6;overflow=hidden;" vertex="1" parent="dEwZGS1SP1S7uAI_P9MJ-27">
          <mxGeometry x="30" width="150" height="30" as="geometry" />
        </mxCell>
        <mxCell id="dEwZGS1SP1S7uAI_P9MJ-30" value="" style="shape=partialRectangle;collapsible=0;dropTarget=0;pointerEvents=0;fillColor=none;top=0;left=0;bottom=0;right=0;points=[[0,0.5],[1,0.5]];portConstraint=eastwest;" vertex="1" parent="dEwZGS1SP1S7uAI_P9MJ-23">
          <mxGeometry y="90" width="180" height="30" as="geometry" />
        </mxCell>
        <mxCell id="dEwZGS1SP1S7uAI_P9MJ-31" value="" style="shape=partialRectangle;connectable=0;fillColor=none;top=0;left=0;bottom=0;right=0;editable=1;overflow=hidden;" vertex="1" parent="dEwZGS1SP1S7uAI_P9MJ-30">
          <mxGeometry width="30" height="30" as="geometry" />
        </mxCell>
        <mxCell id="dEwZGS1SP1S7uAI_P9MJ-32" value="assignment_id" style="shape=partialRectangle;connectable=0;fillColor=none;top=0;left=0;bottom=0;right=0;align=left;spacingLeft=6;overflow=hidden;" vertex="1" parent="dEwZGS1SP1S7uAI_P9MJ-30">
          <mxGeometry x="30" width="150" height="30" as="geometry" />
        </mxCell>
        <mxCell id="dEwZGS1SP1S7uAI_P9MJ-33" value="" style="shape=partialRectangle;collapsible=0;dropTarget=0;pointerEvents=0;fillColor=none;top=0;left=0;bottom=0;right=0;points=[[0,0.5],[1,0.5]];portConstraint=eastwest;" vertex="1" parent="dEwZGS1SP1S7uAI_P9MJ-23">
          <mxGeometry y="120" width="180" height="30" as="geometry" />
        </mxCell>
        <mxCell id="dEwZGS1SP1S7uAI_P9MJ-34" value="FK" style="shape=partialRectangle;connectable=0;fillColor=none;top=0;left=0;bottom=0;right=0;editable=1;overflow=hidden;" vertex="1" parent="dEwZGS1SP1S7uAI_P9MJ-33">
          <mxGeometry width="30" height="30" as="geometry" />
        </mxCell>
        <mxCell id="dEwZGS1SP1S7uAI_P9MJ-35" value="student_id" style="shape=partialRectangle;connectable=0;fillColor=none;top=0;left=0;bottom=0;right=0;align=left;spacingLeft=6;overflow=hidden;" vertex="1" parent="dEwZGS1SP1S7uAI_P9MJ-33">
          <mxGeometry x="30" width="150" height="30" as="geometry" />
        </mxCell>
        <mxCell id="dEwZGS1SP1S7uAI_P9MJ-21" value="created_at" style="shape=partialRectangle;connectable=0;fillColor=none;top=0;left=0;bottom=0;right=0;align=left;spacingLeft=6;overflow=hidden;" vertex="1" parent="dEwZGS1SP1S7uAI_P9MJ-41">
          <mxGeometry x="30" y="170" width="150" height="30" as="geometry" />
        </mxCell>
        <mxCell id="dEwZGS1SP1S7uAI_P9MJ-37" value="started_at" style="shape=partialRectangle;connectable=0;fillColor=none;top=0;left=0;bottom=0;right=0;align=left;spacingLeft=6;overflow=hidden;" vertex="1" parent="dEwZGS1SP1S7uAI_P9MJ-41">
          <mxGeometry x="30" y="200" width="150" height="30" as="geometry" />
        </mxCell>
        <mxCell id="dEwZGS1SP1S7uAI_P9MJ-38" value="completed_at" style="shape=partialRectangle;connectable=0;fillColor=none;top=0;left=0;bottom=0;right=0;align=left;spacingLeft=6;overflow=hidden;" vertex="1" parent="dEwZGS1SP1S7uAI_P9MJ-41">
          <mxGeometry x="30" y="230" width="150" height="30" as="geometry" />
        </mxCell>
        <mxCell id="dEwZGS1SP1S7uAI_P9MJ-39" value="student_feedback" style="shape=partialRectangle;connectable=0;fillColor=none;top=0;left=0;bottom=0;right=0;align=left;spacingLeft=6;overflow=hidden;" vertex="1" parent="dEwZGS1SP1S7uAI_P9MJ-41">
          <mxGeometry x="30" y="260" width="150" height="30" as="geometry" />
        </mxCell>
        <mxCell id="dEwZGS1SP1S7uAI_P9MJ-40" value="teacher_feedback" style="shape=partialRectangle;connectable=0;fillColor=none;top=0;left=0;bottom=0;right=0;align=left;spacingLeft=6;overflow=hidden;" vertex="1" parent="dEwZGS1SP1S7uAI_P9MJ-41">
          <mxGeometry x="30" y="290" width="150" height="30" as="geometry" />
        </mxCell>
        <mxCell id="dEwZGS1SP1S7uAI_P9MJ-71" value="" style="shape=table;startSize=0;container=1;collapsible=1;childLayout=tableLayout;fixedRows=1;rowLines=0;fontStyle=0;align=center;resizeLast=1;strokeColor=none;fillColor=none;" vertex="1" parent="dEwZGS1SP1S7uAI_P9MJ-42">
          <mxGeometry y="145" width="180" height="30" as="geometry" />
        </mxCell>
        <mxCell id="dEwZGS1SP1S7uAI_P9MJ-72" value="" style="shape=partialRectangle;collapsible=0;dropTarget=0;pointerEvents=0;fillColor=none;top=0;left=0;bottom=0;right=0;points=[[0,0.5],[1,0.5]];portConstraint=eastwest;" vertex="1" parent="dEwZGS1SP1S7uAI_P9MJ-71">
          <mxGeometry width="180" height="30" as="geometry" />
        </mxCell>
        <mxCell id="dEwZGS1SP1S7uAI_P9MJ-73" value="FK" style="shape=partialRectangle;connectable=0;fillColor=none;top=0;left=0;bottom=0;right=0;fontStyle=0;overflow=hidden;" vertex="1" parent="dEwZGS1SP1S7uAI_P9MJ-72">
          <mxGeometry width="30" height="30" as="geometry" />
        </mxCell>
        <mxCell id="dEwZGS1SP1S7uAI_P9MJ-74" value="teacher_id" style="shape=partialRectangle;connectable=0;fillColor=none;top=0;left=0;bottom=0;right=0;align=left;spacingLeft=6;fontStyle=0;overflow=hidden;" vertex="1" parent="dEwZGS1SP1S7uAI_P9MJ-72">
          <mxGeometry x="30" width="150" height="30" as="geometry" />
        </mxCell>
        <mxCell id="dEwZGS1SP1S7uAI_P9MJ-43" value="" style="edgeStyle=entityRelationEdgeStyle;fontSize=12;html=1;endArrow=ERmany;exitX=1;exitY=0.5;exitDx=0;exitDy=0;entryX=0;entryY=0.5;entryDx=0;entryDy=0;" edge="1" parent="1" source="dEwZGS1SP1S7uAI_P9MJ-5" target="dEwZGS1SP1S7uAI_P9MJ-23">
          <mxGeometry width="100" height="100" relative="1" as="geometry">
            <mxPoint x="340" y="270" as="sourcePoint" />
            <mxPoint x="440" y="170" as="targetPoint" />
          </mxGeometry>
        </mxCell>
        <mxCell id="dEwZGS1SP1S7uAI_P9MJ-44" value="" style="group" vertex="1" connectable="0" parent="1">
          <mxGeometry x="90" y="320" width="180" height="430" as="geometry" />
        </mxCell>
        <mxCell id="dEwZGS1SP1S7uAI_P9MJ-45" value="" style="group" vertex="1" connectable="0" parent="dEwZGS1SP1S7uAI_P9MJ-44">
          <mxGeometry width="180" height="429.99999999999994" as="geometry" />
        </mxCell>
        <mxCell id="dEwZGS1SP1S7uAI_P9MJ-46" value="" style="group" vertex="1" connectable="0" parent="dEwZGS1SP1S7uAI_P9MJ-45">
          <mxGeometry width="180" height="320" as="geometry" />
        </mxCell>
        <mxCell id="dEwZGS1SP1S7uAI_P9MJ-47" value="phone" style="shape=partialRectangle;connectable=0;fillColor=none;top=0;left=0;bottom=0;right=0;align=left;spacingLeft=6;overflow=hidden;" vertex="1" parent="dEwZGS1SP1S7uAI_P9MJ-46">
          <mxGeometry x="30" y="150" width="150" height="20" as="geometry" />
        </mxCell>
        <mxCell id="dEwZGS1SP1S7uAI_P9MJ-48" value="" style="group" vertex="1" connectable="0" parent="dEwZGS1SP1S7uAI_P9MJ-46">
          <mxGeometry width="180" height="320" as="geometry" />
        </mxCell>
        <mxCell id="dEwZGS1SP1S7uAI_P9MJ-49" value="student" style="shape=table;startSize=30;container=1;collapsible=1;childLayout=tableLayout;fixedRows=1;rowLines=0;fontStyle=1;align=center;resizeLast=1;" vertex="1" parent="dEwZGS1SP1S7uAI_P9MJ-48">
          <mxGeometry width="180" height="290" as="geometry" />
        </mxCell>
        <mxCell id="dEwZGS1SP1S7uAI_P9MJ-50" value="" style="shape=partialRectangle;collapsible=0;dropTarget=0;pointerEvents=0;fillColor=none;top=0;left=0;bottom=1;right=0;points=[[0,0.5],[1,0.5]];portConstraint=eastwest;" vertex="1" parent="dEwZGS1SP1S7uAI_P9MJ-49">
          <mxGeometry y="30" width="180" height="30" as="geometry" />
        </mxCell>
        <mxCell id="dEwZGS1SP1S7uAI_P9MJ-51" value="PK" style="shape=partialRectangle;connectable=0;fillColor=none;top=0;left=0;bottom=0;right=0;fontStyle=1;overflow=hidden;" vertex="1" parent="dEwZGS1SP1S7uAI_P9MJ-50">
          <mxGeometry width="30" height="30" as="geometry" />
        </mxCell>
        <mxCell id="dEwZGS1SP1S7uAI_P9MJ-52" value="UniqueID" style="shape=partialRectangle;connectable=0;fillColor=none;top=0;left=0;bottom=0;right=0;align=left;spacingLeft=6;fontStyle=5;overflow=hidden;" vertex="1" parent="dEwZGS1SP1S7uAI_P9MJ-50">
          <mxGeometry x="30" width="150" height="30" as="geometry" />
        </mxCell>
        <mxCell id="dEwZGS1SP1S7uAI_P9MJ-56" value="" style="shape=partialRectangle;collapsible=0;dropTarget=0;pointerEvents=0;fillColor=none;top=0;left=0;bottom=0;right=0;points=[[0,0.5],[1,0.5]];portConstraint=eastwest;" vertex="1" parent="dEwZGS1SP1S7uAI_P9MJ-49">
          <mxGeometry y="60" width="180" height="30" as="geometry" />
        </mxCell>
        <mxCell id="dEwZGS1SP1S7uAI_P9MJ-57" value="" style="shape=partialRectangle;connectable=0;fillColor=none;top=0;left=0;bottom=0;right=0;editable=1;overflow=hidden;" vertex="1" parent="dEwZGS1SP1S7uAI_P9MJ-56">
          <mxGeometry width="30" height="30" as="geometry" />
        </mxCell>
        <mxCell id="dEwZGS1SP1S7uAI_P9MJ-58" value="name" style="shape=partialRectangle;connectable=0;fillColor=none;top=0;left=0;bottom=0;right=0;align=left;spacingLeft=6;overflow=hidden;" vertex="1" parent="dEwZGS1SP1S7uAI_P9MJ-56">
          <mxGeometry x="30" width="150" height="30" as="geometry" />
        </mxCell>
        <mxCell id="dEwZGS1SP1S7uAI_P9MJ-59" value="" style="shape=partialRectangle;collapsible=0;dropTarget=0;pointerEvents=0;fillColor=none;top=0;left=0;bottom=0;right=0;points=[[0,0.5],[1,0.5]];portConstraint=eastwest;" vertex="1" parent="dEwZGS1SP1S7uAI_P9MJ-49">
          <mxGeometry y="90" width="180" height="30" as="geometry" />
        </mxCell>
        <mxCell id="dEwZGS1SP1S7uAI_P9MJ-60" value="" style="shape=partialRectangle;connectable=0;fillColor=none;top=0;left=0;bottom=0;right=0;editable=1;overflow=hidden;" vertex="1" parent="dEwZGS1SP1S7uAI_P9MJ-59">
          <mxGeometry width="30" height="30" as="geometry" />
        </mxCell>
        <mxCell id="dEwZGS1SP1S7uAI_P9MJ-61" value="email" style="shape=partialRectangle;connectable=0;fillColor=none;top=0;left=0;bottom=0;right=0;align=left;spacingLeft=6;overflow=hidden;" vertex="1" parent="dEwZGS1SP1S7uAI_P9MJ-59">
          <mxGeometry x="30" width="150" height="30" as="geometry" />
        </mxCell>
        <mxCell id="dEwZGS1SP1S7uAI_P9MJ-77" value="" style="shape=partialRectangle;collapsible=0;dropTarget=0;pointerEvents=0;fillColor=none;top=0;left=0;bottom=0;right=0;points=[[0,0.5],[1,0.5]];portConstraint=eastwest;" vertex="1" parent="dEwZGS1SP1S7uAI_P9MJ-49">
          <mxGeometry y="120" width="180" height="30" as="geometry" />
        </mxCell>
        <mxCell id="dEwZGS1SP1S7uAI_P9MJ-78" value="PK" style="shape=partialRectangle;connectable=0;fillColor=none;top=0;left=0;bottom=0;right=0;fontStyle=0;overflow=hidden;" vertex="1" parent="dEwZGS1SP1S7uAI_P9MJ-77">
          <mxGeometry width="30" height="30" as="geometry" />
        </mxCell>
        <mxCell id="dEwZGS1SP1S7uAI_P9MJ-79" value="id" style="shape=partialRectangle;connectable=0;fillColor=none;top=0;left=0;bottom=0;right=0;align=left;spacingLeft=6;fontStyle=0;overflow=hidden;" vertex="1" parent="dEwZGS1SP1S7uAI_P9MJ-77">
          <mxGeometry x="30" width="150" height="30" as="geometry" />
        </mxCell>
        <mxCell id="dEwZGS1SP1S7uAI_P9MJ-62" value="github" style="shape=partialRectangle;connectable=0;fillColor=none;top=0;left=0;bottom=0;right=0;align=left;spacingLeft=6;overflow=hidden;" vertex="1" parent="dEwZGS1SP1S7uAI_P9MJ-48">
          <mxGeometry x="30" y="170" width="150" height="30" as="geometry" />
        </mxCell>
        <mxCell id="dEwZGS1SP1S7uAI_P9MJ-63" value="started_date" style="shape=partialRectangle;connectable=0;fillColor=none;top=0;left=0;bottom=0;right=0;align=left;spacingLeft=6;overflow=hidden;" vertex="1" parent="dEwZGS1SP1S7uAI_P9MJ-48">
          <mxGeometry x="30" y="200" width="150" height="30" as="geometry" />
        </mxCell>
        <mxCell id="dEwZGS1SP1S7uAI_P9MJ-64" value="end_date" style="shape=partialRectangle;connectable=0;fillColor=none;top=0;left=0;bottom=0;right=0;align=left;spacingLeft=6;overflow=hidden;" vertex="1" parent="dEwZGS1SP1S7uAI_P9MJ-48">
          <mxGeometry x="30" y="230" width="150" height="30" as="geometry" />
        </mxCell>
        <mxCell id="dEwZGS1SP1S7uAI_P9MJ-65" value="cohort_id" style="shape=partialRectangle;connectable=0;fillColor=none;top=0;left=0;bottom=0;right=0;align=left;spacingLeft=6;overflow=hidden;" vertex="1" parent="dEwZGS1SP1S7uAI_P9MJ-48">
          <mxGeometry x="30" y="260" width="150" height="30" as="geometry" />
        </mxCell>
        <mxCell id="dEwZGS1SP1S7uAI_P9MJ-80" value="FK" style="text;html=1;align=center;verticalAlign=middle;resizable=0;points=[];autosize=1;strokeColor=none;fillColor=none;" vertex="1" parent="dEwZGS1SP1S7uAI_P9MJ-48">
          <mxGeometry x="5" y="265" width="30" height="20" as="geometry" />
        </mxCell>
        <mxCell id="dEwZGS1SP1S7uAI_P9MJ-75" value="" style="edgeStyle=entityRelationEdgeStyle;fontSize=12;html=1;endArrow=ERmany;exitX=1;exitY=0.5;exitDx=0;exitDy=0;" edge="1" parent="1" target="dEwZGS1SP1S7uAI_P9MJ-76">
          <mxGeometry width="100" height="100" relative="1" as="geometry">
            <mxPoint x="270" y="395" as="sourcePoint" />
            <mxPoint x="470" y="250" as="targetPoint" />
          </mxGeometry>
        </mxCell>
        <mxCell id="dEwZGS1SP1S7uAI_P9MJ-81" value="" style="edgeStyle=entityRelationEdgeStyle;fontSize=12;html=1;endArrow=ERmany;entryX=0;entryY=0.5;entryDx=0;entryDy=0;" edge="1" parent="1" source="dEwZGS1SP1S7uAI_P9MJ-77" target="dEwZGS1SP1S7uAI_P9MJ-33">
          <mxGeometry width="100" height="100" relative="1" as="geometry">
            <mxPoint x="370" y="350" as="sourcePoint" />
            <mxPoint x="470" y="250" as="targetPoint" />
          </mxGeometry>
        </mxCell>
      </root>
    </mxGraphModel>
  </diagram>
</mxfile>
